<mxfile host="app.diagrams.net" modified="2023-10-07T12:46:11.850Z" agent="Mozilla/5.0 (Windows NT 10.0; Win64; x64) AppleWebKit/537.36 (KHTML, like Gecko) Chrome/117.0.0.0 Safari/537.36" etag="LMAq6Y7dCqhcaAmNZ-Y2" version="22.0.4" type="device">
  <diagram name="Page-1" id="5ffM72v4nF_bGZKfo2SZ">
    <mxGraphModel dx="880" dy="470" grid="1" gridSize="10" guides="1" tooltips="1" connect="1" arrows="1" fold="1" page="1" pageScale="1" pageWidth="850" pageHeight="1100" math="0" shadow="0">
      <root>
        <mxCell id="0" />
        <mxCell id="1" parent="0" />
        <mxCell id="SJ9dCTv6q1QLFrqjMNKv-55" style="edgeStyle=orthogonalEdgeStyle;rounded=0;orthogonalLoop=1;jettySize=auto;html=1;exitX=1;exitY=0.25;exitDx=0;exitDy=0;entryX=0;entryY=0.5;entryDx=0;entryDy=0;" parent="1" source="SJ9dCTv6q1QLFrqjMNKv-1" target="SJ9dCTv6q1QLFrqjMNKv-6" edge="1">
          <mxGeometry relative="1" as="geometry">
            <mxPoint x="99.99999999999989" y="240" as="sourcePoint" />
            <mxPoint x="280" y="150" as="targetPoint" />
            <Array as="points">
              <mxPoint x="270" y="240" />
              <mxPoint x="270" y="160" />
            </Array>
          </mxGeometry>
        </mxCell>
        <mxCell id="SJ9dCTv6q1QLFrqjMNKv-66" value="Edit&amp;nbsp;Facility" style="edgeLabel;html=1;align=center;verticalAlign=middle;resizable=0;points=[];rotation=-90;fontSize=12;fontStyle=2" parent="SJ9dCTv6q1QLFrqjMNKv-55" vertex="1" connectable="0">
          <mxGeometry x="-0.5935" y="-1" relative="1" as="geometry">
            <mxPoint x="23" y="-41" as="offset" />
          </mxGeometry>
        </mxCell>
        <mxCell id="SJ9dCTv6q1QLFrqjMNKv-57" style="edgeStyle=orthogonalEdgeStyle;rounded=0;orthogonalLoop=1;jettySize=auto;html=1;exitX=1;exitY=0.75;exitDx=0;exitDy=0;entryX=0;entryY=0.5;entryDx=0;entryDy=0;" parent="1" source="SJ9dCTv6q1QLFrqjMNKv-1" target="SJ9dCTv6q1QLFrqjMNKv-7" edge="1">
          <mxGeometry relative="1" as="geometry">
            <Array as="points">
              <mxPoint x="270" y="280" />
              <mxPoint x="270" y="360" />
            </Array>
          </mxGeometry>
        </mxCell>
        <mxCell id="SJ9dCTv6q1QLFrqjMNKv-67" value="Remove&amp;nbsp;Facility" style="edgeLabel;html=1;align=center;verticalAlign=middle;resizable=0;points=[];rotation=-90;fontSize=12;fontStyle=2" parent="SJ9dCTv6q1QLFrqjMNKv-57" vertex="1" connectable="0">
          <mxGeometry x="-0.7265" y="-1" relative="1" as="geometry">
            <mxPoint x="42" y="39" as="offset" />
          </mxGeometry>
        </mxCell>
        <mxCell id="SJ9dCTv6q1QLFrqjMNKv-59" style="edgeStyle=orthogonalEdgeStyle;rounded=0;orthogonalLoop=1;jettySize=auto;html=1;exitX=0.75;exitY=0;exitDx=0;exitDy=0;entryX=0;entryY=0.5;entryDx=0;entryDy=0;" parent="1" source="SJ9dCTv6q1QLFrqjMNKv-1" target="SJ9dCTv6q1QLFrqjMNKv-4" edge="1">
          <mxGeometry relative="1" as="geometry" />
        </mxCell>
        <mxCell id="SJ9dCTv6q1QLFrqjMNKv-64" value="Add&amp;nbsp;Facility" style="edgeLabel;html=1;align=center;verticalAlign=middle;resizable=0;points=[];fontSize=12;fontStyle=2" parent="SJ9dCTv6q1QLFrqjMNKv-59" vertex="1" connectable="0">
          <mxGeometry x="0.245" relative="1" as="geometry">
            <mxPoint x="-32" as="offset" />
          </mxGeometry>
        </mxCell>
        <mxCell id="SJ9dCTv6q1QLFrqjMNKv-61" style="edgeStyle=orthogonalEdgeStyle;rounded=0;orthogonalLoop=1;jettySize=auto;html=1;exitX=0.75;exitY=1;exitDx=0;exitDy=0;entryX=0;entryY=0.5;entryDx=0;entryDy=0;" parent="1" source="SJ9dCTv6q1QLFrqjMNKv-1" target="SJ9dCTv6q1QLFrqjMNKv-8" edge="1">
          <mxGeometry relative="1" as="geometry" />
        </mxCell>
        <mxCell id="SJ9dCTv6q1QLFrqjMNKv-69" value="Request&amp;nbsp;Facility&amp;nbsp;Information" style="edgeLabel;html=1;align=center;verticalAlign=middle;resizable=0;points=[];fontSize=12;fontStyle=2" parent="SJ9dCTv6q1QLFrqjMNKv-61" vertex="1" connectable="0">
          <mxGeometry x="0.192" y="1" relative="1" as="geometry">
            <mxPoint x="18" y="1" as="offset" />
          </mxGeometry>
        </mxCell>
        <mxCell id="SJ9dCTv6q1QLFrqjMNKv-1" value="ADMIN&lt;br style=&quot;font-size: 14px;&quot;&gt;[ OWNER ]" style="rounded=1;whiteSpace=wrap;html=1;fontSize=14;fontStyle=1" parent="1" vertex="1">
          <mxGeometry x="70" y="220" width="120" height="80" as="geometry" />
        </mxCell>
        <mxCell id="SJ9dCTv6q1QLFrqjMNKv-2" value="" style="rounded=0;whiteSpace=wrap;html=1;" parent="1" vertex="1">
          <mxGeometry y="520" width="850" height="10" as="geometry" />
        </mxCell>
        <mxCell id="SJ9dCTv6q1QLFrqjMNKv-41" style="edgeStyle=orthogonalEdgeStyle;rounded=0;orthogonalLoop=1;jettySize=auto;html=1;exitX=1;exitY=1;exitDx=0;exitDy=0;" parent="1" source="SJ9dCTv6q1QLFrqjMNKv-4" edge="1">
          <mxGeometry relative="1" as="geometry">
            <mxPoint x="510" y="230" as="targetPoint" />
            <Array as="points">
              <mxPoint x="510" y="88" />
            </Array>
          </mxGeometry>
        </mxCell>
        <mxCell id="SJ9dCTv6q1QLFrqjMNKv-81" value="New&amp;nbsp;Facility" style="edgeLabel;html=1;align=center;verticalAlign=middle;resizable=0;points=[];rotation=90;fontSize=12;fontStyle=2" parent="SJ9dCTv6q1QLFrqjMNKv-41" vertex="1" connectable="0">
          <mxGeometry x="-0.3177" y="-1" relative="1" as="geometry">
            <mxPoint x="1" y="29" as="offset" />
          </mxGeometry>
        </mxCell>
        <mxCell id="SJ9dCTv6q1QLFrqjMNKv-60" style="edgeStyle=orthogonalEdgeStyle;rounded=0;orthogonalLoop=1;jettySize=auto;html=1;exitX=0;exitY=0;exitDx=0;exitDy=0;entryX=0.25;entryY=0;entryDx=0;entryDy=0;" parent="1" source="SJ9dCTv6q1QLFrqjMNKv-4" target="SJ9dCTv6q1QLFrqjMNKv-1" edge="1">
          <mxGeometry relative="1" as="geometry" />
        </mxCell>
        <mxCell id="SJ9dCTv6q1QLFrqjMNKv-63" value="Facility&amp;nbsp;Information" style="edgeLabel;html=1;align=center;verticalAlign=middle;resizable=0;points=[];fontSize=12;fontStyle=2" parent="SJ9dCTv6q1QLFrqjMNKv-60" vertex="1" connectable="0">
          <mxGeometry x="-0.3147" relative="1" as="geometry">
            <mxPoint x="-65" as="offset" />
          </mxGeometry>
        </mxCell>
        <mxCell id="SJ9dCTv6q1QLFrqjMNKv-4" value="4.1&lt;br style=&quot;font-size: 13px;&quot;&gt;Insert &lt;br style=&quot;font-size: 13px;&quot;&gt;Facility" style="ellipse;whiteSpace=wrap;html=1;fontSize=13;fontStyle=1" parent="1" vertex="1">
          <mxGeometry x="390" y="20" width="80" height="80" as="geometry" />
        </mxCell>
        <mxCell id="SJ9dCTv6q1QLFrqjMNKv-52" style="edgeStyle=orthogonalEdgeStyle;rounded=0;orthogonalLoop=1;jettySize=auto;html=1;exitX=0;exitY=0.25;exitDx=0;exitDy=0;" parent="1" source="SJ9dCTv6q1QLFrqjMNKv-5" edge="1">
          <mxGeometry relative="1" as="geometry">
            <mxPoint x="655" y="240" as="sourcePoint" />
            <mxPoint x="465" y="440" as="targetPoint" />
            <Array as="points">
              <mxPoint x="555" y="240" />
              <mxPoint x="555" y="440" />
            </Array>
          </mxGeometry>
        </mxCell>
        <mxCell id="SJ9dCTv6q1QLFrqjMNKv-71" value="Request&amp;nbsp;Facility&amp;nbsp;Information" style="edgeLabel;html=1;align=center;verticalAlign=middle;resizable=0;points=[];rotation=-90;fontSize=12;fontStyle=2" parent="SJ9dCTv6q1QLFrqjMNKv-52" vertex="1" connectable="0">
          <mxGeometry x="-0.5965" y="2" relative="1" as="geometry">
            <mxPoint x="-34" y="98" as="offset" />
          </mxGeometry>
        </mxCell>
        <mxCell id="SJ9dCTv6q1QLFrqjMNKv-5" value="USERS&lt;br style=&quot;font-size: 14px;&quot;&gt;[ PASSENGER ]" style="rounded=1;whiteSpace=wrap;html=1;fontSize=14;fontStyle=1" parent="1" vertex="1">
          <mxGeometry x="670" y="220" width="120" height="80" as="geometry" />
        </mxCell>
        <mxCell id="SJ9dCTv6q1QLFrqjMNKv-44" style="edgeStyle=orthogonalEdgeStyle;rounded=0;orthogonalLoop=1;jettySize=auto;html=1;exitX=1;exitY=1;exitDx=0;exitDy=0;" parent="1" source="SJ9dCTv6q1QLFrqjMNKv-6" edge="1">
          <mxGeometry relative="1" as="geometry">
            <mxPoint x="470" y="230" as="targetPoint" />
            <Array as="points">
              <mxPoint x="458" y="190" />
              <mxPoint x="500" y="190" />
              <mxPoint x="500" y="210" />
              <mxPoint x="470" y="210" />
            </Array>
          </mxGeometry>
        </mxCell>
        <mxCell id="SJ9dCTv6q1QLFrqjMNKv-74" value="Facility&lt;br style=&quot;font-size: 12px;&quot;&gt;ID" style="edgeLabel;html=1;align=center;verticalAlign=middle;resizable=0;points=[];fontSize=12;fontStyle=2" parent="SJ9dCTv6q1QLFrqjMNKv-44" vertex="1" connectable="0">
          <mxGeometry x="-0.4846" relative="1" as="geometry">
            <mxPoint x="4" y="13" as="offset" />
          </mxGeometry>
        </mxCell>
        <mxCell id="SJ9dCTv6q1QLFrqjMNKv-56" style="edgeStyle=orthogonalEdgeStyle;rounded=0;orthogonalLoop=1;jettySize=auto;html=1;exitX=0;exitY=0;exitDx=0;exitDy=0;entryX=1;entryY=0;entryDx=0;entryDy=0;" parent="1" source="SJ9dCTv6q1QLFrqjMNKv-6" target="SJ9dCTv6q1QLFrqjMNKv-1" edge="1">
          <mxGeometry relative="1" as="geometry" />
        </mxCell>
        <mxCell id="SJ9dCTv6q1QLFrqjMNKv-65" value="Facility&amp;nbsp;Information" style="edgeLabel;html=1;align=center;verticalAlign=middle;resizable=0;points=[];fontSize=12;fontStyle=2" parent="SJ9dCTv6q1QLFrqjMNKv-56" vertex="1" connectable="0">
          <mxGeometry x="-0.1198" y="-1" relative="1" as="geometry">
            <mxPoint x="-11" as="offset" />
          </mxGeometry>
        </mxCell>
        <mxCell id="SJ9dCTv6q1QLFrqjMNKv-6" value="4.2&lt;br style=&quot;border-color: var(--border-color); font-size: 13px;&quot;&gt;Update&lt;br style=&quot;border-color: var(--border-color); font-size: 13px;&quot;&gt;Facility" style="ellipse;whiteSpace=wrap;html=1;fontSize=13;fontStyle=1" parent="1" vertex="1">
          <mxGeometry x="390" y="120" width="80" height="80" as="geometry" />
        </mxCell>
        <mxCell id="SJ9dCTv6q1QLFrqjMNKv-51" style="edgeStyle=orthogonalEdgeStyle;rounded=0;orthogonalLoop=1;jettySize=auto;html=1;exitX=0;exitY=0;exitDx=0;exitDy=0;" parent="1" edge="1">
          <mxGeometry relative="1" as="geometry">
            <mxPoint x="401.7157287525381" y="331.71572875253804" as="sourcePoint" />
            <mxPoint x="390" y="290" as="targetPoint" />
            <Array as="points">
              <mxPoint x="360" y="332" />
              <mxPoint x="360" y="310" />
              <mxPoint x="390" y="310" />
            </Array>
          </mxGeometry>
        </mxCell>
        <mxCell id="SJ9dCTv6q1QLFrqjMNKv-79" value="Facility&lt;br style=&quot;font-size: 12px;&quot;&gt;ID" style="edgeLabel;html=1;align=center;verticalAlign=middle;resizable=0;points=[];fontSize=12;fontStyle=2" parent="SJ9dCTv6q1QLFrqjMNKv-51" vertex="1" connectable="0">
          <mxGeometry x="-0.0718" relative="1" as="geometry">
            <mxPoint x="9" y="-3" as="offset" />
          </mxGeometry>
        </mxCell>
        <mxCell id="SJ9dCTv6q1QLFrqjMNKv-58" style="edgeStyle=orthogonalEdgeStyle;rounded=0;orthogonalLoop=1;jettySize=auto;html=1;exitX=0;exitY=1;exitDx=0;exitDy=0;entryX=1;entryY=1;entryDx=0;entryDy=0;" parent="1" source="SJ9dCTv6q1QLFrqjMNKv-7" target="SJ9dCTv6q1QLFrqjMNKv-1" edge="1">
          <mxGeometry relative="1" as="geometry" />
        </mxCell>
        <mxCell id="SJ9dCTv6q1QLFrqjMNKv-68" value="Facility&amp;nbsp;Information" style="edgeLabel;html=1;align=center;verticalAlign=middle;resizable=0;points=[];fontSize=12;fontStyle=2" parent="SJ9dCTv6q1QLFrqjMNKv-58" vertex="1" connectable="0">
          <mxGeometry x="-0.0185" y="-1" relative="1" as="geometry">
            <mxPoint x="4" as="offset" />
          </mxGeometry>
        </mxCell>
        <mxCell id="SJ9dCTv6q1QLFrqjMNKv-7" value="4.3&lt;br style=&quot;border-color: var(--border-color); font-size: 13px;&quot;&gt;Delete&lt;br style=&quot;border-color: var(--border-color); font-size: 13px;&quot;&gt;Facility" style="ellipse;whiteSpace=wrap;html=1;fontSize=13;fontStyle=1" parent="1" vertex="1">
          <mxGeometry x="390" y="320" width="80" height="80" as="geometry" />
        </mxCell>
        <mxCell id="SJ9dCTv6q1QLFrqjMNKv-48" style="edgeStyle=orthogonalEdgeStyle;rounded=0;orthogonalLoop=1;jettySize=auto;html=1;exitX=0;exitY=0;exitDx=0;exitDy=0;" parent="1" source="SJ9dCTv6q1QLFrqjMNKv-8" edge="1">
          <mxGeometry relative="1" as="geometry">
            <mxPoint x="350" y="290" as="targetPoint" />
            <Array as="points">
              <mxPoint x="350" y="432" />
            </Array>
          </mxGeometry>
        </mxCell>
        <mxCell id="SJ9dCTv6q1QLFrqjMNKv-83" value="Req.&amp;nbsp;Facility" style="edgeLabel;html=1;align=center;verticalAlign=middle;resizable=0;points=[];rotation=-90;fontSize=12;fontStyle=2" parent="SJ9dCTv6q1QLFrqjMNKv-48" vertex="1" connectable="0">
          <mxGeometry x="-0.3414" relative="1" as="geometry">
            <mxPoint x="-1" y="-33" as="offset" />
          </mxGeometry>
        </mxCell>
        <mxCell id="SJ9dCTv6q1QLFrqjMNKv-53" style="edgeStyle=orthogonalEdgeStyle;rounded=0;orthogonalLoop=1;jettySize=auto;html=1;entryX=0;entryY=0.75;entryDx=0;entryDy=0;exitX=0.941;exitY=0.743;exitDx=0;exitDy=0;exitPerimeter=0;" parent="1" source="SJ9dCTv6q1QLFrqjMNKv-8" target="SJ9dCTv6q1QLFrqjMNKv-5" edge="1">
          <mxGeometry relative="1" as="geometry">
            <mxPoint x="470" y="480" as="sourcePoint" />
            <Array as="points">
              <mxPoint x="470" y="479" />
              <mxPoint x="610" y="480" />
              <mxPoint x="610" y="280" />
            </Array>
          </mxGeometry>
        </mxCell>
        <mxCell id="SJ9dCTv6q1QLFrqjMNKv-72" value="Response&amp;nbsp;Facility&amp;nbsp;Information" style="edgeLabel;html=1;align=center;verticalAlign=middle;resizable=0;points=[];rotation=-90;fontSize=12;fontStyle=2" parent="SJ9dCTv6q1QLFrqjMNKv-53" vertex="1" connectable="0">
          <mxGeometry x="-0.467" y="-2" relative="1" as="geometry">
            <mxPoint x="36" y="-102" as="offset" />
          </mxGeometry>
        </mxCell>
        <mxCell id="SJ9dCTv6q1QLFrqjMNKv-62" style="edgeStyle=orthogonalEdgeStyle;rounded=0;orthogonalLoop=1;jettySize=auto;html=1;exitX=0;exitY=1;exitDx=0;exitDy=0;entryX=0.25;entryY=1;entryDx=0;entryDy=0;" parent="1" source="SJ9dCTv6q1QLFrqjMNKv-8" target="SJ9dCTv6q1QLFrqjMNKv-1" edge="1">
          <mxGeometry relative="1" as="geometry" />
        </mxCell>
        <mxCell id="SJ9dCTv6q1QLFrqjMNKv-70" value="Response&amp;nbsp;Facility&amp;nbsp;Information" style="edgeLabel;html=1;align=center;verticalAlign=middle;resizable=0;points=[];fontSize=12;fontStyle=2" parent="SJ9dCTv6q1QLFrqjMNKv-62" vertex="1" connectable="0">
          <mxGeometry x="-0.219" relative="1" as="geometry">
            <mxPoint x="-16" as="offset" />
          </mxGeometry>
        </mxCell>
        <mxCell id="SJ9dCTv6q1QLFrqjMNKv-8" value="4.4&lt;br style=&quot;border-color: var(--border-color); font-size: 13px;&quot;&gt;View&lt;br style=&quot;border-color: var(--border-color); font-size: 13px;&quot;&gt;Facility" style="ellipse;whiteSpace=wrap;html=1;fontSize=13;fontStyle=1" parent="1" vertex="1">
          <mxGeometry x="390" y="420" width="80" height="80" as="geometry" />
        </mxCell>
        <mxCell id="SJ9dCTv6q1QLFrqjMNKv-43" style="edgeStyle=orthogonalEdgeStyle;rounded=0;orthogonalLoop=1;jettySize=auto;html=1;entryX=0;entryY=1;entryDx=0;entryDy=0;" parent="1" target="SJ9dCTv6q1QLFrqjMNKv-4" edge="1">
          <mxGeometry relative="1" as="geometry">
            <mxPoint x="350" y="230" as="sourcePoint" />
            <Array as="points">
              <mxPoint x="350" y="88" />
            </Array>
          </mxGeometry>
        </mxCell>
        <mxCell id="SJ9dCTv6q1QLFrqjMNKv-82" value="Addition&amp;nbsp;Facility" style="edgeLabel;html=1;align=center;verticalAlign=middle;resizable=0;points=[];rotation=-90;fontSize=12;fontStyle=2" parent="SJ9dCTv6q1QLFrqjMNKv-43" vertex="1" connectable="0">
          <mxGeometry x="0.2606" y="-1" relative="1" as="geometry">
            <mxPoint x="-1" y="32" as="offset" />
          </mxGeometry>
        </mxCell>
        <mxCell id="SJ9dCTv6q1QLFrqjMNKv-46" style="edgeStyle=orthogonalEdgeStyle;rounded=0;orthogonalLoop=1;jettySize=auto;html=1;entryX=0;entryY=1;entryDx=0;entryDy=0;" parent="1" target="SJ9dCTv6q1QLFrqjMNKv-6" edge="1">
          <mxGeometry relative="1" as="geometry">
            <mxPoint x="390" y="230" as="sourcePoint" />
            <Array as="points">
              <mxPoint x="390" y="210" />
              <mxPoint x="360" y="210" />
              <mxPoint x="360" y="188" />
              <mxPoint x="402" y="188" />
            </Array>
          </mxGeometry>
        </mxCell>
        <mxCell id="SJ9dCTv6q1QLFrqjMNKv-76" value="Edit&lt;br style=&quot;font-size: 12px;&quot;&gt;Facility" style="edgeLabel;html=1;align=center;verticalAlign=middle;resizable=0;points=[];fontSize=12;fontStyle=2" parent="SJ9dCTv6q1QLFrqjMNKv-46" vertex="1" connectable="0">
          <mxGeometry x="0.4151" relative="1" as="geometry">
            <mxPoint x="1" y="13" as="offset" />
          </mxGeometry>
        </mxCell>
        <mxCell id="SJ9dCTv6q1QLFrqjMNKv-49" style="edgeStyle=orthogonalEdgeStyle;rounded=0;orthogonalLoop=1;jettySize=auto;html=1;entryX=1;entryY=0;entryDx=0;entryDy=0;" parent="1" target="SJ9dCTv6q1QLFrqjMNKv-8" edge="1">
          <mxGeometry relative="1" as="geometry">
            <mxPoint x="510" y="290" as="sourcePoint" />
            <Array as="points">
              <mxPoint x="510" y="432" />
            </Array>
          </mxGeometry>
        </mxCell>
        <mxCell id="SJ9dCTv6q1QLFrqjMNKv-85" value="Res.&amp;nbsp;Facility" style="edgeLabel;html=1;align=center;verticalAlign=middle;resizable=0;points=[];rotation=90;fontSize=12;fontStyle=2" parent="SJ9dCTv6q1QLFrqjMNKv-49" vertex="1" connectable="0">
          <mxGeometry x="0.3069" y="-1" relative="1" as="geometry">
            <mxPoint x="2" y="-29" as="offset" />
          </mxGeometry>
        </mxCell>
        <mxCell id="SJ9dCTv6q1QLFrqjMNKv-50" style="edgeStyle=orthogonalEdgeStyle;rounded=0;orthogonalLoop=1;jettySize=auto;html=1;entryX=1;entryY=0;entryDx=0;entryDy=0;" parent="1" target="SJ9dCTv6q1QLFrqjMNKv-7" edge="1">
          <mxGeometry relative="1" as="geometry">
            <mxPoint x="470" y="290" as="sourcePoint" />
            <Array as="points">
              <mxPoint x="470" y="310" />
              <mxPoint x="500" y="310" />
              <mxPoint x="500" y="332" />
            </Array>
          </mxGeometry>
        </mxCell>
        <mxCell id="SJ9dCTv6q1QLFrqjMNKv-80" value="Remove&lt;br style=&quot;font-size: 12px;&quot;&gt;Facility" style="edgeLabel;html=1;align=center;verticalAlign=middle;resizable=0;points=[];fontSize=12;fontStyle=2" parent="SJ9dCTv6q1QLFrqjMNKv-50" vertex="1" connectable="0">
          <mxGeometry x="-0.0289" y="-1" relative="1" as="geometry">
            <mxPoint x="-13" y="-3" as="offset" />
          </mxGeometry>
        </mxCell>
        <mxCell id="SJ9dCTv6q1QLFrqjMNKv-10" value="Facility" style="html=1;dashed=0;whiteSpace=wrap;shape=partialRectangle;right=0;left=0;fontSize=14;fontStyle=1" parent="1" vertex="1">
          <mxGeometry x="350" y="240" width="160" height="40" as="geometry" />
        </mxCell>
      </root>
    </mxGraphModel>
  </diagram>
</mxfile>
